<svg width="24" height="24" viewBox="0 0 24 24" fill="none" xmlns="http://www.w3.org/2000/svg">
<mask id="mask0_446_6066" style="mask-type:alpha" maskUnits="userSpaceOnUse" x="0" y="0" width="24" height="24">
<rect width="24" height="24" fill="#D9D9D9"/>
</mask>
<g mask="url(#mask0_446_6066)">
<path d="M4.49967 20.499V11.2394L2.63237 12.6721L1.73047 11.476L4.49964 9.34908V6.47986H5.99964V8.19911L11.9996 3.62411L22.2688 11.476L21.3669 12.6567L19.4996 11.2394V20.499H4.49967ZM5.99964 18.9991H10.8073V14.6144H13.192V18.9991H17.9996V10.0991L11.9996 5.52406L5.99964 10.0991V18.9991ZM4.49967 5.38371C4.49967 4.66576 4.74165 4.05358 5.22562 3.54718C5.7096 3.04078 6.33941 2.78758 7.11504 2.78758C7.47529 2.78758 7.75125 2.68213 7.94292 2.47123C8.13458 2.26033 8.23042 2.00039 8.23042 1.69141H9.73039C9.73039 2.40936 9.48841 3.02153 9.00444 3.52793C8.52048 4.03433 7.89068 4.28753 7.11504 4.28753C6.75478 4.28753 6.47881 4.39298 6.28714 4.60388C6.09548 4.81478 5.99964 5.07472 5.99964 5.38371H4.49967Z" fill="white"/>
</g>
</svg>
