<svg width="18" height="18" viewBox="0 0 18 18" fill="none" xmlns="http://www.w3.org/2000/svg">
<path d="M11.3357 13.0244L8.67044 15.6896C7.78257 16.5775 6.71289 17.0214 5.4614 17.0215C4.2099 17.0216 3.14027 16.5778 2.25251 15.69C1.36475 14.8022 0.920779 13.7325 0.920602 12.4807C0.920426 11.229 1.36427 10.1592 2.25214 9.2713L4.91736 6.60607L5.97799 7.6667L3.31276 10.3319C2.71897 10.9257 2.42207 11.6419 2.42207 12.4805C2.42207 13.319 2.71897 14.0352 3.31276 14.629C3.90656 15.2228 4.62273 15.5197 5.46129 15.5197C6.29985 15.5197 7.01602 15.2228 7.60982 14.629L10.275 11.9638L11.3357 13.0244ZM6.8483 12.1541L5.78767 11.0934L11.0909 5.79018L12.1516 6.8508L6.8483 12.1541ZM13.0219 11.3382L11.9612 10.2775L14.6265 7.61232C15.2203 7.01853 15.5172 6.30235 15.5172 5.46379C15.5172 4.62524 15.2203 3.90906 14.6265 3.31527C14.0327 2.72147 13.3165 2.42458 12.4779 2.42458C11.6394 2.42458 10.9232 2.72147 10.3294 3.31527L7.66419 5.9805L6.60357 4.91987L9.26879 2.25464C10.1567 1.36678 11.2263 0.922803 12.4778 0.92272C13.7293 0.922637 14.799 1.36648 15.6867 2.25424C16.5745 3.142 17.0185 4.21176 17.0186 5.46351C17.0188 6.71527 16.575 7.78508 15.6871 8.67294L13.0219 11.3382Z" fill="#7A7A7A"/>
</svg>
