<svg width="10" height="13" viewBox="0 0 10 13" fill="none" xmlns="http://www.w3.org/2000/svg">
<path d="M5 0C6.32608 0 7.59785 0.563684 8.53553 1.56705C9.47322 2.57041 10 3.93126 10 5.35023C10 7.61105 8.51539 10.0749 5.58462 12.7681C5.42165 12.9179 5.21388 13.0002 4.99904 13C4.7842 12.9998 4.57656 12.9171 4.41385 12.767L4.22 12.587C1.41897 9.96406 0 7.56057 0 5.35023C0 3.93126 0.526784 2.57041 1.46447 1.56705C2.40215 0.563684 3.67392 0 5 0ZM5 3.29245C4.48997 3.29245 4.00083 3.50925 3.64018 3.89516C3.27953 4.28107 3.07692 4.80448 3.07692 5.35023C3.07692 5.89599 3.27953 6.4194 3.64018 6.80531C4.00083 7.19122 4.48997 7.40802 5 7.40802C5.51003 7.40802 5.99917 7.19122 6.35982 6.80531C6.72047 6.4194 6.92308 5.89599 6.92308 5.35023C6.92308 4.80448 6.72047 4.28107 6.35982 3.89516C5.99917 3.50925 5.51003 3.29245 5 3.29245Z" fill="#FBC344"/>
</svg>
