<svg width="56" height="36" viewBox="0 0 56 36" fill="none" xmlns="http://www.w3.org/2000/svg">
<path d="M17.1469 16.6738V26.864H0.046875V29.9858H17.579C17.6481 29.9858 17.7173 29.9801 17.7864 29.9743H18.6333C19.5494 29.9743 20.2926 29.2354 20.2926 28.3247V16.6738H17.1469Z" fill="#F2F2F3"/>
<path d="M41.1838 16.6738H21.6582V19.7956H41.1838V16.6738Z" fill="#FBC344"/>
<path d="M41.1838 21.8184H21.6582V24.9401H41.1838V21.8184Z" fill="#FBC344"/>
<path d="M41.051 26.8594H21.5254V29.9812H41.051V26.8594Z" fill="#FBC344"/>
<path d="M42.6289 8.26038L48.7706 4.59444V1.47266L42.6289 5.33335V8.26038Z" fill="#FBC344"/>
<path d="M42.4277 13.8444L48.5694 10.1784V7.05664L42.4277 10.9231V13.8444Z" fill="#FBC344"/>
<path d="M42.4277 19.2682L48.5694 15.6023V12.4805L42.4277 16.3469V19.2682Z" fill="#FBC344"/>
<path d="M42.4277 24.4752L48.5694 20.8093V17.6875L42.4277 21.5539V24.4752Z" fill="#FBC344"/>
<path d="M42.4277 30.0494L48.5694 26.3835V23.2617L42.4277 27.1281V30.0494Z" fill="#FBC344"/>
<path d="M55.7256 8.26038L49.5781 4.59444V1.47266L55.7256 5.33335V8.26038Z" fill="#F2F2F3"/>
<path d="M55.9268 13.8444L49.7793 10.1784V7.05664L55.9268 10.9231V13.8444Z" fill="#F2F2F3"/>
<path d="M55.9268 19.2682L49.7793 15.6023V12.4805L55.9268 16.3469V19.2682Z" fill="#F2F2F3"/>
<path d="M55.9268 24.4752L49.7793 20.8093V17.6875L55.9268 21.5539V24.4752Z" fill="#F2F2F3"/>
<path d="M55.9268 30.0494L49.7793 26.3835V23.2617L55.9268 27.1281V30.0494Z" fill="#F2F2F3"/>
<path d="M54.6579 4.11273L49.0635 0.458243L43.4922 4.11273L43.2617 3.76332L48.9483 0.0343682C49.0174 -0.0114561 49.1096 -0.0114561 49.1787 0.0343682L54.8883 3.76332L54.6579 4.11273Z" fill="#F2F2F3"/>
<path d="M1.68811 34.5101C1.68811 34.7163 1.64778 34.8938 1.56712 35.037C1.48646 35.1802 1.38275 35.2891 1.25024 35.3578C1.11772 35.4323 0.967924 35.4666 0.812365 35.4666C0.622237 35.4666 0.466678 35.4323 0.345687 35.3693C0.218935 35.3062 0.109468 35.2089 0 35.0886L0.288073 34.8022C0.362972 34.8938 0.437871 34.9626 0.518531 35.0084C0.599191 35.0542 0.691375 35.0714 0.806604 35.0714C0.898787 35.0714 0.973686 35.0485 1.04282 35.0084C1.11196 34.9683 1.16381 34.8996 1.20414 34.8136C1.24447 34.7277 1.26176 34.6246 1.26176 34.4986V33.0265H0.259265L0.35721 32.6484H1.68811V34.5101Z" fill="#F2F2F3"/>
<path d="M2.90983 35.3073C2.69666 35.1927 2.52957 35.0266 2.39706 34.8089C2.27031 34.5913 2.20117 34.3392 2.20117 34.0471C2.20117 33.755 2.26455 33.4972 2.39706 33.2796C2.52381 33.0619 2.69666 32.8958 2.90983 32.7812C3.123 32.6667 3.3477 32.6094 3.58968 32.6094C3.83166 32.6094 4.06212 32.6667 4.2753 32.7812C4.48847 32.8958 4.66131 33.0619 4.79383 33.2796C4.92634 33.4972 4.98972 33.7493 4.98972 34.0471C4.98972 34.3335 4.92634 34.5913 4.79383 34.8089C4.66131 35.0266 4.48847 35.1927 4.2753 35.3073C4.06212 35.4218 3.83166 35.4791 3.58968 35.4791C3.3477 35.4791 3.123 35.4218 2.90983 35.3073ZM4.06788 34.9464C4.21192 34.8662 4.33291 34.7459 4.41933 34.5913C4.50575 34.4366 4.55185 34.2533 4.55185 34.0414C4.55185 33.8294 4.50575 33.6404 4.41933 33.4858C4.33291 33.3311 4.21192 33.2108 4.06788 33.1306C3.92385 33.0504 3.76253 33.0103 3.58968 33.0103C3.41684 33.0103 3.26128 33.0504 3.11724 33.1306C2.97321 33.2108 2.85798 33.3311 2.77156 33.4858C2.68513 33.6404 2.63904 33.8294 2.63904 34.0414C2.63904 34.2533 2.68513 34.4366 2.77156 34.5913C2.85798 34.7459 2.97321 34.8662 3.11724 34.9464C3.26128 35.0266 3.4226 35.0667 3.58968 35.0667C3.76253 35.0667 3.92385 35.0266 4.06788 34.9464Z" fill="#F2F2F3"/>
<path d="M7.27551 35.0373V35.4211H5.55859V32.6602H7.22942V33.0439H5.97342V33.8115H7.1718V34.1953H5.97342V35.043H7.27551V35.0373Z" fill="#F2F2F3"/>
<path d="M11.3732 35.0373V35.4211H9.65625V32.6602H11.3271V33.0439H10.0711V33.8115H11.2752V34.1953H10.0768V35.043H11.3732V35.0373Z" fill="#F2F2F3"/>
<path d="M12.548 33.0439H11.6953V32.6602H13.8155V33.0439H12.9628V35.4268H12.5422V33.0439H12.548Z" fill="#F2F2F3"/>
<path d="M14.693 35.3073C14.4799 35.1927 14.3128 35.0266 14.1803 34.8089C14.0535 34.5913 13.9844 34.3392 13.9844 34.0471C13.9844 33.755 14.0478 33.4972 14.1803 33.2796C14.307 33.0619 14.4799 32.8958 14.693 32.7812C14.9062 32.6667 15.1309 32.6094 15.3729 32.6094C15.6149 32.6094 15.8453 32.6667 16.0585 32.7812C16.2717 32.8958 16.4445 33.0619 16.577 33.2796C16.7095 33.4972 16.7729 33.7493 16.7729 34.0471C16.7729 34.3335 16.7095 34.5913 16.577 34.8089C16.4445 35.0266 16.2717 35.1927 16.0585 35.3073C15.8453 35.4218 15.6149 35.4791 15.3729 35.4791C15.1309 35.4791 14.9062 35.4218 14.693 35.3073ZM15.8511 34.9464C15.9951 34.8662 16.1161 34.7459 16.2025 34.5913C16.289 34.4366 16.335 34.2533 16.335 34.0414C16.335 33.8294 16.289 33.6404 16.2025 33.4858C16.1161 33.3311 15.9951 33.2108 15.8511 33.1306C15.707 33.0504 15.5457 33.0103 15.3729 33.0103C15.2 33.0103 15.0445 33.0504 14.9004 33.1306C14.7564 33.2108 14.6412 33.3311 14.5548 33.4858C14.4683 33.6404 14.4222 33.8294 14.4222 34.0414C14.4222 34.2533 14.4683 34.4366 14.5548 34.5913C14.6412 34.7459 14.7564 34.8662 14.9004 34.9464C15.0445 35.0266 15.2058 35.0667 15.3729 35.0667C15.5457 35.0667 15.707 35.0266 15.8511 34.9464Z" fill="#F2F2F3"/>
<path d="M19.5312 32.6611V35.4678H19.4563L17.7682 33.5775V35.422H17.3477V32.6152H17.4283L19.1107 34.5112V32.6611H19.5312Z" fill="#F2F2F3"/>
<path d="M20.2695 32.6602H20.6901V35.4211H20.2695V32.6602Z" fill="#F2F2F3"/>
<path d="M22.8719 35.4211L21.8464 34.075V35.4211H21.4258V32.6602H22.3188C22.532 32.6602 22.7106 32.6888 22.8604 32.7518C23.0102 32.8148 23.1254 32.9065 23.2061 33.0268C23.2867 33.147 23.3271 33.296 23.3271 33.4678C23.3271 33.7027 23.2522 33.8917 23.1081 34.0234C22.9641 34.1552 22.7509 34.2354 22.4686 34.2583L23.3904 35.4211H22.8719ZM22.1921 33.9432C22.434 33.9432 22.6069 33.9031 22.7221 33.8287C22.8373 33.7542 22.8892 33.6397 22.8892 33.485C22.8892 33.1871 22.6875 33.0382 22.29 33.0382H21.8521V33.9432H22.1921Z" fill="#F2F2F3"/>
<path d="M24.3719 35.3409C24.2106 35.255 24.0839 35.1289 23.9859 34.9571C23.8937 34.7853 23.8477 34.5791 23.8477 34.3327L23.8534 32.6602H24.274L24.2682 34.3041C24.2682 34.5561 24.3259 34.7394 24.4411 34.8712C24.5563 34.9972 24.7176 35.0659 24.925 35.0659C25.1325 35.0659 25.2938 35.0029 25.409 34.8712C25.5242 34.7452 25.5819 34.5561 25.5819 34.3041L25.5876 32.6602H26.0082L26.0024 34.3327C26.0024 34.5791 25.9563 34.7853 25.8642 34.9571C25.772 35.1289 25.6452 35.255 25.4839 35.3409C25.3226 35.4268 25.1382 35.4669 24.9308 35.4669C24.7234 35.4669 24.539 35.4268 24.3719 35.3409Z" fill="#F2F2F3"/>
<path d="M30.4898 35.4392L30.173 35.1413C30.0577 35.2444 29.9195 35.3246 29.7697 35.3819C29.6199 35.4392 29.447 35.4621 29.2627 35.4621C29.061 35.4621 28.8882 35.4334 28.7384 35.3762C28.5886 35.3189 28.4791 35.2387 28.3984 35.1298C28.3235 35.021 28.2832 34.895 28.2832 34.7461C28.2832 34.5628 28.3351 34.4138 28.4445 34.2935C28.554 34.1733 28.7153 34.0759 28.9342 33.99C28.8133 33.8639 28.7268 33.7494 28.675 33.6406C28.6231 33.5317 28.5943 33.4172 28.5943 33.3026C28.5943 33.188 28.6231 33.0735 28.6865 32.9704C28.7499 32.8673 28.8363 32.7813 28.9573 32.7126C29.0783 32.6439 29.2223 32.6152 29.3952 32.6152C29.5507 32.6152 29.689 32.6439 29.8042 32.7069C29.9195 32.7642 30.0116 32.8501 30.0693 32.9532C30.1326 33.0563 30.1614 33.1709 30.1614 33.2969C30.1614 33.4744 30.1096 33.6176 30.0001 33.7379C29.8906 33.8525 29.7293 33.9499 29.5162 34.0301L30.1269 34.5971C30.2018 34.4425 30.2306 34.2535 30.2306 34.0301H30.6281C30.6166 34.3566 30.5417 34.6315 30.4034 34.8606L30.7433 35.1757L30.4898 35.4392ZM29.6256 35.0554C29.7293 35.021 29.8215 34.9637 29.9022 34.895L29.1417 34.1904C28.9976 34.2592 28.8882 34.3394 28.819 34.4196C28.7499 34.5055 28.7095 34.6086 28.7095 34.7289C28.7095 34.8492 28.7614 34.9408 28.8593 35.0096C28.9573 35.0783 29.1013 35.1127 29.2857 35.1127C29.4067 35.1127 29.5219 35.0897 29.6256 35.0554ZM29.1762 33.0105C29.1186 33.0391 29.0725 33.0849 29.038 33.1365C29.0091 33.188 28.9919 33.251 28.9919 33.3198C28.9919 33.3771 29.0034 33.4286 29.0207 33.4744C29.038 33.5203 29.0668 33.5718 29.1129 33.6291C29.1589 33.6864 29.2223 33.7551 29.303 33.8353C29.4643 33.7551 29.5853 33.6749 29.6602 33.6005C29.7351 33.526 29.7754 33.4286 29.7754 33.3198C29.7754 33.251 29.7581 33.1938 29.7293 33.1365C29.7005 33.0849 29.6544 33.0391 29.5968 33.0105C29.5392 32.9818 29.4643 32.9646 29.3779 32.9646C29.303 32.9646 29.2338 32.9818 29.1762 33.0105Z" fill="#F2F2F3"/>
<path d="M34.4017 34.7863H33.3416L33.0881 35.4278H32.6387L33.8486 32.6211H33.9177L35.1276 35.4278H34.6667L34.4017 34.7863ZM33.8716 33.423L33.4683 34.4312H34.2749L33.8716 33.423Z" fill="#F2F2F3"/>
<path d="M35.7151 35.3588C35.548 35.2844 35.404 35.1813 35.2715 35.0552L35.525 34.7402C35.7554 34.9636 36.0147 35.0782 36.297 35.0782C36.4123 35.0782 36.5102 35.061 36.5966 35.0266C36.683 34.9922 36.7407 34.9464 36.7867 34.8834C36.8328 34.8204 36.8501 34.7459 36.8501 34.66C36.8501 34.5684 36.8213 34.4996 36.7695 34.4423C36.7176 34.3908 36.6485 34.345 36.5678 34.3163C36.4872 34.2877 36.3777 34.2533 36.2394 34.219C36.055 34.1731 35.9052 34.1273 35.7843 34.0815C35.669 34.0357 35.5653 33.9555 35.4847 33.8524C35.404 33.7493 35.3579 33.6061 35.3579 33.4228C35.3579 33.2681 35.3982 33.1249 35.4847 33.0046C35.5653 32.8786 35.6863 32.7869 35.8361 32.7125C35.9859 32.6437 36.1587 32.6094 36.3546 32.6094C36.5448 32.6094 36.7118 32.6437 36.8616 32.7067C37.0114 32.7698 37.144 32.8557 37.2477 32.9588L37.0057 33.2681C36.9193 33.1822 36.8213 33.1134 36.7118 33.0676C36.6024 33.0218 36.4814 32.9989 36.3489 32.9989C36.2336 32.9989 36.1357 33.0161 36.0493 33.0504C35.9629 33.0848 35.8995 33.1364 35.8534 33.1936C35.8073 33.2566 35.7843 33.3254 35.7843 33.4113C35.7843 33.4972 35.8131 33.566 35.8649 33.6175C35.9168 33.6691 35.9859 33.7092 36.0608 33.7435C36.1415 33.7722 36.2509 33.8065 36.395 33.8409C36.5793 33.8867 36.7349 33.9326 36.8501 33.9784C36.9654 34.0242 37.0691 34.1044 37.1497 34.2075C37.2304 34.3106 37.2765 34.4481 37.2765 34.6256C37.2765 34.7975 37.2361 34.9407 37.1497 35.0724C37.0633 35.2042 36.9481 35.2958 36.7983 35.3703C36.6485 35.4448 36.4756 35.4734 36.2797 35.4734C36.0723 35.4734 35.8822 35.4333 35.7151 35.3588Z" fill="#F2F2F3"/>
<path d="M37.9964 35.3588C37.8293 35.2844 37.6852 35.1813 37.5527 35.0552L37.8062 34.7402C38.0367 34.9636 38.296 35.0782 38.5783 35.0782C38.6935 35.0782 38.7914 35.061 38.8779 35.0266C38.9643 34.9922 39.0219 34.9464 39.068 34.8834C39.1141 34.8204 39.1314 34.7459 39.1314 34.66C39.1314 34.5684 39.1026 34.4996 39.0507 34.4423C38.9989 34.3908 38.9297 34.345 38.8491 34.3163C38.7684 34.2877 38.6589 34.2533 38.5207 34.219C38.3363 34.1731 38.1865 34.1273 38.0655 34.0815C37.9503 34.0357 37.8466 33.9555 37.7659 33.8524C37.6852 33.7493 37.6392 33.6061 37.6392 33.4228C37.6392 33.2681 37.6795 33.1249 37.7659 33.0046C37.8466 32.8786 37.9676 32.7869 38.1174 32.7125C38.2672 32.6437 38.44 32.6094 38.6359 32.6094C38.826 32.6094 38.9931 32.6437 39.1429 32.7067C39.2927 32.7698 39.4252 32.8557 39.5289 32.9588L39.2869 33.2681C39.2005 33.1822 39.1026 33.1134 38.9931 33.0676C38.8836 33.0218 38.7626 32.9989 38.6301 32.9989C38.5149 32.9989 38.417 33.0161 38.3305 33.0504C38.2441 33.0848 38.1807 33.1364 38.1346 33.1936C38.0886 33.2566 38.0655 33.3254 38.0655 33.4113C38.0655 33.4972 38.0943 33.566 38.1462 33.6175C38.198 33.6691 38.2672 33.7092 38.3421 33.7435C38.4227 33.7722 38.5322 33.8065 38.6762 33.8409C38.8606 33.8867 39.0161 33.9326 39.1314 33.9784C39.2466 34.0242 39.3503 34.1044 39.431 34.2075C39.5116 34.3106 39.5577 34.4481 39.5577 34.6256C39.5577 34.7975 39.5174 34.9407 39.431 35.0724C39.3445 35.2042 39.2293 35.2958 39.0795 35.3703C38.9297 35.4448 38.7569 35.4734 38.561 35.4734C38.3536 35.4734 38.1634 35.4333 37.9964 35.3588Z" fill="#F2F2F3"/>
<path d="M40.654 35.3073C40.4408 35.1927 40.2737 35.0266 40.1412 34.8089C40.0145 34.5913 39.9453 34.3392 39.9453 34.0471C39.9453 33.755 40.0087 33.4972 40.1412 33.2796C40.268 33.0619 40.4408 32.8958 40.654 32.7812C40.8671 32.6667 41.0918 32.6094 41.3338 32.6094C41.5758 32.6094 41.8063 32.6667 42.0194 32.7812C42.2326 32.8958 42.4055 33.0619 42.538 33.2796C42.6705 33.4972 42.7339 33.7493 42.7339 34.0471C42.7339 34.3335 42.6705 34.5913 42.538 34.8089C42.4055 35.0266 42.2326 35.1927 42.0194 35.3073C41.8063 35.4218 41.5758 35.4791 41.3338 35.4791C41.0976 35.4791 40.8671 35.4218 40.654 35.3073ZM41.812 34.9464C41.9561 34.8662 42.0771 34.7459 42.1635 34.5913C42.2499 34.4366 42.296 34.2533 42.296 34.0414C42.296 33.8294 42.2499 33.6404 42.1635 33.4858C42.0771 33.3311 41.9561 33.2108 41.812 33.1306C41.668 33.0504 41.5067 33.0103 41.3338 33.0103C41.161 33.0103 41.0054 33.0504 40.8614 33.1306C40.7173 33.2108 40.6021 33.3311 40.5157 33.4858C40.4293 33.6404 40.3832 33.8294 40.3832 34.0414C40.3832 34.2533 40.4293 34.4366 40.5157 34.5913C40.6021 34.7459 40.7173 34.8662 40.8614 34.9464C41.0054 35.0266 41.1667 35.0667 41.3338 35.0667C41.5067 35.0667 41.668 35.0266 41.812 34.9464Z" fill="#F2F2F3"/>
<path d="M43.8109 35.2904C43.6035 35.1701 43.4422 34.9982 43.3212 34.7863C43.2002 34.5686 43.1426 34.3223 43.1426 34.0474C43.1426 33.7667 43.206 33.5204 43.3269 33.3027C43.4479 33.0851 43.615 32.919 43.8224 32.7987C44.0298 32.6784 44.2661 32.6211 44.5253 32.6211C44.9632 32.6211 45.3089 32.77 45.5682 33.0736L45.2801 33.36C45.1937 33.2512 45.0842 33.1653 44.9632 33.108C44.8364 33.0507 44.6982 33.0221 44.5484 33.0221C44.364 33.0221 44.2027 33.0622 44.0529 33.1481C43.9089 33.234 43.7936 33.3486 43.7072 33.5089C43.6265 33.6636 43.5805 33.8469 43.5805 34.0474C43.5805 34.2479 43.6208 34.4254 43.7014 34.5801C43.7821 34.7347 43.8973 34.855 44.0356 34.9409C44.1796 35.0269 44.341 35.0727 44.5196 35.0727C44.8307 35.0727 45.09 34.941 45.2916 34.6775L45.5854 34.9409C45.4644 35.1128 45.3089 35.2503 45.1188 35.3362C44.9286 35.4278 44.7212 35.4737 44.4965 35.4737C44.2488 35.4737 44.0183 35.4107 43.8109 35.2904Z" fill="#F2F2F3"/>
<path d="M46.0801 32.6602H46.5007V35.4211H46.0801V32.6602Z" fill="#F2F2F3"/>
<path d="M48.6088 34.7863H47.5545L47.301 35.4278H46.8516L48.0615 32.6211H48.1306L49.3405 35.4278H48.8796L48.6088 34.7863ZM48.0788 33.423L47.6754 34.4312H48.4821L48.0788 33.423Z" fill="#F2F2F3"/>
<path d="M49.9816 33.0439H49.1289V32.6602H51.2491V33.0439H50.3964V35.4268H49.9758V33.0439H49.9816Z" fill="#F2F2F3"/>
<path d="M53.4825 35.0373V35.4211H51.7656V32.6602H53.4364V33.0439H52.1805V33.8115H53.3788V34.1953H52.1805V35.043H53.4825V35.0373Z" fill="#F2F2F3"/>
<path d="M54.2737 35.3588C54.1066 35.2844 53.9626 35.1813 53.8301 35.0552L54.0836 34.7402C54.314 34.9636 54.5733 35.0782 54.8556 35.0782C54.9708 35.0782 55.0688 35.061 55.1552 35.0266C55.2359 34.9922 55.2993 34.9464 55.3453 34.8834C55.3914 34.8204 55.4087 34.7459 55.4087 34.66C55.4087 34.5684 55.3799 34.4996 55.3281 34.4423C55.2762 34.3908 55.2071 34.345 55.1264 34.3163C55.0457 34.2877 54.9363 34.2533 54.798 34.219C54.6136 34.1731 54.4638 34.1273 54.3428 34.0815C54.2276 34.0357 54.1239 33.9555 54.0433 33.8524C53.9626 33.7493 53.9165 33.6061 53.9165 33.4228C53.9165 33.2681 53.9568 33.1249 54.0433 33.0046C54.1239 32.8786 54.2449 32.7869 54.3947 32.7125C54.5445 32.6437 54.7173 32.6094 54.9132 32.6094C55.1034 32.6094 55.2704 32.6437 55.4202 32.7067C55.57 32.7698 55.7026 32.8557 55.8063 32.9588L55.5643 33.2681C55.4779 33.1822 55.3799 33.1134 55.2704 33.0676C55.161 33.0218 55.04 32.9989 54.9075 32.9989C54.7922 32.9989 54.6943 33.0161 54.6079 33.0504C54.5215 33.0848 54.4581 33.1364 54.412 33.1936C54.3659 33.2566 54.3428 33.3254 54.3428 33.4113C54.3428 33.4972 54.3717 33.566 54.4235 33.6175C54.4754 33.6691 54.5445 33.7092 54.6194 33.7435C54.7001 33.7722 54.8095 33.8065 54.9536 33.8409C55.1379 33.8867 55.2935 33.9326 55.4087 33.9784C55.5239 34.0242 55.6277 34.1044 55.7083 34.2075C55.789 34.3106 55.8351 34.4481 55.8351 34.6256C55.8351 34.7975 55.7947 34.9407 55.7083 35.0724C55.6277 35.1984 55.5067 35.2958 55.3569 35.3703C55.2071 35.4448 55.0342 35.4734 54.8383 35.4734C54.6309 35.4734 54.4408 35.4333 54.2737 35.3588Z" fill="#F2F2F3"/>
</svg>
