<svg width="20" height="13" viewBox="0 0 20 13" fill="none" xmlns="http://www.w3.org/2000/svg">
<path d="M0.5 12.4999V6.99993C0.5 6.62686 0.588467 6.265 0.7654 5.91435C0.942317 5.56372 1.18718 5.27558 1.5 5.04995V2.49995C1.5 1.80125 1.74198 1.20992 2.22595 0.725951C2.70993 0.241984 3.30128 0 3.99998 0H8.25C8.6141 0 8.94038 0.0708333 9.22883 0.2125C9.51729 0.354167 9.77434 0.55 9.99998 0.8C10.2256 0.55 10.4827 0.354167 10.7711 0.2125C11.0596 0.0708333 11.3859 0 11.75 0H16C16.6987 0 17.29 0.241984 17.774 0.725951C18.258 1.20992 18.5 1.80125 18.5 2.49995V5.04995C18.8128 5.27558 19.0576 5.56372 19.2346 5.91435C19.4115 6.265 19.5 6.62686 19.5 6.99993V12.4999H18V10.4999H1.99998V12.4999H0.5ZM10.75 4.49995H17V2.49995C17 2.21662 16.9041 1.97912 16.7125 1.78745C16.5208 1.59578 16.2833 1.49995 16 1.49995H11.75C11.4666 1.49995 11.2291 1.59578 11.0375 1.78745C10.8458 1.97912 10.75 2.21662 10.75 2.49995V4.49995ZM2.99998 4.49995H9.25V2.49995C9.25 2.21662 9.15417 1.97912 8.9625 1.78745C8.77083 1.59578 8.53333 1.49995 8.25 1.49995H3.99998C3.71664 1.49995 3.47914 1.59578 3.28748 1.78745C3.09581 1.97912 2.99998 2.21662 2.99998 2.49995V4.49995ZM1.99998 8.99993H18V6.99993C18 6.71659 17.9041 6.47909 17.7125 6.28743C17.5208 6.09576 17.2833 5.99993 17 5.99993H2.99998C2.71664 5.99993 2.47914 6.09576 2.28748 6.28743C2.09581 6.47909 1.99998 6.71659 1.99998 6.99993V8.99993Z" fill="white"/>
</svg>
