<svg width="26" height="20" viewBox="0 0 26 20" fill="none" xmlns="http://www.w3.org/2000/svg">
<path d="M2.0316 19.6157H23.8848C24.6361 19.6157 25.2507 18.8945 25.2507 18.013C25.2507 17.1316 24.6361 16.4104 23.8848 16.4104H2.0316C1.28039 16.4104 0.665771 17.1316 0.665771 18.013C0.665771 18.8945 1.28039 19.6157 2.0316 19.6157ZM2.0316 11.6024H23.8848C24.6361 11.6024 25.2507 10.8812 25.2507 9.99974C25.2507 9.11827 24.6361 8.39708 23.8848 8.39708H2.0316C1.28039 8.39708 0.665771 9.11827 0.665771 9.99974C0.665771 10.8812 1.28039 11.6024 2.0316 11.6024ZM0.665771 1.98645C0.665771 2.86791 1.28039 3.5891 2.0316 3.5891H23.8848C24.6361 3.5891 25.2507 2.86791 25.2507 1.98645C25.2507 1.10499 24.6361 0.383789 23.8848 0.383789H2.0316C1.28039 0.383789 0.665771 1.10499 0.665771 1.98645Z" fill="white"/>
</svg>
