<svg width="198" height="187" viewBox="0 0 198 187" fill="none" xmlns="http://www.w3.org/2000/svg">
<circle cx="99.3505" cy="93.618" r="54.1161" fill="#616161"/>
<circle cx="99.3472" cy="93.6168" r="65.9488" stroke="#FFD24D"/>
<circle cx="99.3488" cy="93.6163" r="79.0285" stroke="#FFD24D" stroke-opacity="0.45"/>
<circle cx="99.3475" cy="93.6151" r="92.621" stroke="#FFD24D" stroke-opacity="0.12"/>
<path d="M15.694 107H9.994V86.67H0.532V81.54H25.156V86.67H15.694V107ZM32.8997 107H27.1997V81.54H32.8997V93.776H33.2037C33.8117 90.546 36.0537 87.582 40.9177 87.582C46.0477 87.582 48.5557 90.926 48.5557 95.334V107H42.8557V97.044C42.8557 93.852 41.4877 92.712 37.9157 92.712C34.0777 92.712 32.8997 94.27 32.8997 97.462V107ZM61.5401 107.38C55.1941 107.38 50.8621 104.264 50.8621 97.5C50.8621 91.42 55.1561 87.582 61.4261 87.582C67.6581 87.582 71.8001 90.85 71.8001 96.816C71.8001 97.5 71.7241 97.994 71.6481 98.64H56.1441C56.2961 101.566 57.6641 102.82 61.3501 102.82C64.7321 102.82 65.9101 101.946 65.9101 100.312V99.932H71.6101V100.35C71.6101 104.492 67.5821 107.38 61.5401 107.38ZM61.3121 92.028C57.9301 92.028 56.4861 93.168 56.2201 95.638H66.3281C66.1761 93.13 64.6561 92.028 61.3121 92.028ZM91.6325 107.38C83.9185 107.38 79.5865 104.34 79.5865 98.412V98.184H85.2865V98.868C85.2865 101.224 86.4645 102.174 91.6325 102.174C96.1925 102.174 97.2565 101.49 97.2565 99.78C97.2565 98.222 96.3825 97.652 93.7605 97.196L86.6165 96.17C82.0565 95.448 79.3585 93.168 79.3585 89.026C79.3585 85.188 82.4745 81.16 91.0245 81.16C98.8525 81.16 102.501 84.77 102.501 90.128V90.356H96.7625V89.824C96.7625 87.392 95.5085 86.366 90.4545 86.366C86.3505 86.366 85.0965 87.164 85.0965 88.798C85.0965 90.28 85.9325 90.812 88.0605 91.192L95.2045 92.332C100.905 93.244 102.957 96.018 102.957 99.514C102.957 103.656 99.7265 107.38 91.6325 107.38ZM110.978 86.024H105.278V81.54H110.978V86.024ZM110.978 107H105.278V87.962H110.978V107ZM119.167 107H112.289L119.889 97.69V97.386L112.289 87.962H119.243L124.297 94.384H124.601L129.503 87.962H136.381L128.781 97.272V97.614L136.381 107H129.427L124.373 100.616H124.069L119.167 107ZM151.163 107H146.451C142.005 107 139.307 104.91 139.307 100.122V92.674H136.305V87.962H139.307V84.276H145.007V87.962H151.163V92.674H145.007V99.476C145.007 101.376 145.729 101.87 147.743 101.87H151.163V107ZM161.163 107.38C155.805 107.38 153.259 104.074 153.259 99.818V87.962H158.959V97.918C158.959 100.996 160.251 102.288 163.861 102.288C167.585 102.288 168.915 100.844 168.915 97.614V87.962H174.615V107H169.295V101.186H168.991C168.497 104.378 166.179 107.38 161.163 107.38ZM187.144 107.38C180.722 107.38 177.188 104.872 177.188 100.464V100.35H182.888V100.692C182.888 102.402 183.952 102.858 187.182 102.858C190.222 102.858 190.944 102.364 190.944 101.224C190.944 100.16 190.374 99.856 188.132 99.552L182.774 98.906C178.974 98.488 176.846 96.778 176.846 93.586C176.846 90.242 179.696 87.582 186.232 87.582C192.464 87.582 195.998 89.938 195.998 94.574V94.688H190.298V94.46C190.298 92.902 189.538 92.104 186.042 92.104C183.192 92.104 182.47 92.598 182.47 93.814C182.47 94.802 183.002 95.22 185.51 95.524L189.576 96.018C194.668 96.588 196.568 98.298 196.568 101.452C196.568 105.024 193.034 107.38 187.144 107.38Z" fill="white"/>
</svg>
